<svg width="55" height="69" viewBox="0 0 55 69" fill="none" xmlns="http://www.w3.org/2000/svg">
<g id="_1" clip-path="url(#clip0_24_334)">
<path id="Vector" d="M27.4582 53.0639V50.9332C29.0239 50.9332 30.7933 50.3496 31.3769 48.8025C31.7752 47.8298 31.7752 46.4772 31.3769 45.5045C30.9878 44.7264 30.3949 44.152 29.4129 43.7629C28.2364 43.3738 27.2544 43.1793 27.2544 42.9847V40.6595C28.431 40.854 29.9966 41.6322 30.2004 41.8267L31.5714 39.5015C30.9785 39.3069 30.3949 38.9179 29.8113 38.7233C29.2184 38.5288 28.4402 38.3342 27.6528 38.1397V36.3981H26.0872V38.1397C24.3178 38.3342 22.9467 39.1124 22.3631 40.6595C21.974 41.6322 21.974 42.7902 22.1685 43.5684C22.5576 44.3465 23.1505 44.9302 23.9287 45.31C24.9107 45.6991 25.8926 46.0882 26.2817 46.0882V48.4134C24.7161 48.2189 22.9467 47.2554 22.7522 47.0609L21.3811 49.5807C22.7522 50.5534 24.5216 50.9425 26.0872 51.1277V53.2584H27.4582V53.0639ZM27.2637 46.2734C27.6528 46.468 28.0511 46.6625 28.2457 46.6625C28.4402 46.8571 28.6348 47.0516 28.6348 47.4407C28.6348 48.0243 28.2457 48.4134 27.2637 48.4134V46.2827V46.2734ZM25.2997 42.5864C25.1052 42.3918 24.9107 42.1973 24.9107 41.8082C24.9107 41.2246 25.2997 40.8355 26.0872 40.8355V42.9662C25.8926 42.9662 25.6888 42.7717 25.2997 42.5771V42.5864Z" fill="#31B889"/>
<path id="Vector_2" d="M39.2328 44.9208C39.2328 38.3249 33.7393 32.7017 26.8747 32.7017C20.0101 32.7017 14.5166 38.1303 14.5166 44.9208C14.5166 51.7113 20.0101 57.1399 26.8747 57.1399C33.7393 57.1399 39.2328 51.7113 39.2328 44.9208ZM17.0642 44.9208C17.0642 39.4921 21.3812 35.2215 26.8747 35.2215C32.3682 35.2215 36.6852 39.4921 36.6852 44.9208C36.6852 50.3495 32.3682 54.6201 26.8747 54.6201C21.3812 54.6201 17.0642 50.3495 17.0642 44.9208Z" fill="#31B889"/>
<path id="Vector_3" d="M42.957 43.7536C42.3641 43.7536 41.7805 44.3373 41.7805 44.9116C41.7805 52.8601 35.1104 59.456 27.0693 59.456C26.4764 59.456 25.8928 60.0397 25.8928 60.6233C25.8928 61.2069 26.4857 61.7813 27.0693 61.7813C36.4815 61.7813 44.3281 54.2219 44.3281 44.7171C44.1335 44.328 43.5406 43.7444 42.957 43.7444V43.7536Z" fill="#31B889"/>
<path id="Vector_4" d="M26.8747 30.3764C27.4676 30.3764 28.0512 29.7928 28.0512 29.2184C28.0512 28.644 27.4676 28.0511 26.8747 28.0511C17.4625 28.0511 9.61597 35.6105 9.61597 45.1153C9.61597 45.6989 10.2089 46.2733 10.7925 46.2733C11.3761 46.2733 11.969 45.6897 11.969 45.1153C12.1635 36.9723 18.8336 30.3764 26.8747 30.3764Z" fill="#31B889"/>
<path id="Vector_5" d="M54.5275 14.8598C53.9347 14.4707 53.1565 14.4707 52.7581 15.0543C50.2105 18.1577 43.5405 18.9359 38.4453 18.9359C43.7351 15.2489 46.8755 9.62566 47.0701 9.43111C47.4592 8.84749 47.2646 8.06932 46.681 7.88404C46.0881 7.49495 45.3099 7.68949 45.1154 8.27312C45.1154 8.27312 41.5858 14.2854 36.2868 17.5834L39.8164 4.59534C40.011 4.01171 39.7979 2.61285 39.205 2.41831C37.9451 1.78836 34.9528 2.85372 28.4403 4.59534C27.8196 4.76209 25.8927 4.78988 25.8927 4.78988C21.5757 4.59534 16.6751 0.333926 16.6751 0.333926C16.286 -0.0551598 15.6931 -0.0551598 15.304 0.139383C14.3221 0.528468 14.1275 1.1121 14.322 1.68646L18.0462 17.9725C11.5707 20.6868 7.05912 27.468 4.317 33.8694C1.37106 40.6506 0 47.4411 0 50.739C0 57.5295 5.10443 63.5418 13.1455 66.6359C18.4167 69.2206 31.6456 69.8505 39.2328 66.8305C46.329 64.005 51.8132 59.1414 52.3783 50.9336C52.8137 44.5507 47.8668 29.0243 38.4546 21.2612C43.7443 21.2612 51.3963 20.6775 54.7313 16.6107C55.1204 16.027 55.1204 15.2489 54.5368 14.869L54.5275 14.8598ZM17.4625 4.39153C20.4085 6.32769 25.1145 8.65294 29.2277 6.71678C32.5627 5.1697 35.3049 4.97516 36.6852 5.1697L33.3502 17.9725C31.1917 16.9998 28.8386 16.4161 26.0965 16.4161C24.1326 16.4161 22.1686 16.6107 20.4085 17.1943L17.4625 4.40079V4.39153ZM43.7443 31.7294C47.6722 38.7052 49.8307 46.6629 49.8307 50.7298C49.8307 59.4564 39.242 66.6267 26.0965 66.6267C23.5489 66.8212 20.9921 66.4321 18.639 65.8485C9.03234 63.7178 2.55685 57.7055 2.55685 50.7205C2.55685 43.7355 8.24491 24.9297 18.8336 20.2792C21.1866 19.3065 23.5397 18.7321 26.0873 18.7321C34.712 18.7321 40.4 25.7171 43.7351 31.7202L43.7443 31.7294Z" fill="#31B889"/>
</g>
<defs>
<clipPath id="clip0_24_334">
<rect width="55" height="68.8496" fill="white"/>
</clipPath>
</defs>
</svg>
