<svg width="75" height="71" viewBox="0 0 75 71" fill="none" xmlns="http://www.w3.org/2000/svg">
<path id="Vector" d="M74.6084 22.8483C74.5608 27.9637 72.99 32.552 69.8522 36.5777C69.2176 37.39 69.1223 37.9606 69.5111 38.9868C71.1533 43.2859 68.4004 47.5692 63.8108 47.9456C62.8508 48.0248 62.5256 48.1912 62.4661 49.2492C62.2836 52.6528 59.8202 55.1491 56.4127 55.3868C55.3893 55.4581 55.1275 55.7236 55.0442 56.7181C54.7864 59.8008 53.0965 61.778 50.0936 62.6259C48.7013 63.0182 47.7572 63.6324 47.3843 65.3362C46.5196 69.2826 42.3901 71.2757 38.5582 69.766C37.626 69.3975 36.916 69.4213 35.9917 69.7858C32.4692 71.1806 28.2168 69.4253 27.36 65.8671C26.872 63.8424 25.7375 63.1331 24.1429 62.5625C21.2987 61.5482 19.716 59.5353 19.4978 56.5636C19.4224 55.5611 19.0694 55.466 18.2046 55.3947C14.7654 55.1134 12.3655 52.7241 12.1354 49.269C12.064 48.1912 11.6951 48.0367 10.755 47.9456C6.23282 47.5137 3.47987 43.3295 5.04278 39.1374C5.47516 37.9764 5.28079 37.283 4.60247 36.3677C-5.17964 23.2089 1.36953 4.89906 17.2764 1.02788C24.0715 -0.628361 30.339 0.778258 35.9401 4.93472C36.9041 5.6519 37.4594 5.84209 38.5304 5.0417C52.1722 -5.1137 71.074 2.23639 74.2673 18.9098C74.5132 20.1975 74.5013 21.5368 74.6084 22.8483ZM40.3274 57.7365L40.3552 57.7642C40.2124 57.6215 40.0735 57.4789 39.9307 57.3402L39.9585 57.368C39.8157 57.2253 39.6768 57.0827 39.534 56.94L39.5578 56.9598C39.2841 56.6864 39.0104 56.413 38.7327 56.1396C36.7811 53.9643 34.7422 53.6513 32.9571 55.2442C31.1244 56.8806 31.2553 59.1629 33.322 61.2629C34.8969 62.8597 36.4677 64.4565 38.0862 66.0058C39.9744 67.8126 42.2394 67.8007 43.8182 66.0415C45.2899 64.4011 45.036 62.3169 43.1438 60.5378C42.9971 60.3912 42.8503 60.2486 42.7035 60.102L42.7313 60.1257L41.9062 59.3095C41.7872 59.1906 41.6721 59.0757 41.5531 58.9568C41.2794 58.6834 41.0057 58.41 40.732 58.1406L40.7479 58.1604C40.6051 58.0178 40.4662 57.8751 40.3234 57.7365H40.3274ZM18.8512 43.5038L18.8155 43.5395C18.7163 43.6148 18.6171 43.6901 18.518 43.7653C18.3514 43.9476 18.1808 44.1299 18.0142 44.3082C17.3002 44.9818 16.5108 45.592 15.884 46.3369C14.0871 48.4646 15.047 51.5077 17.7048 52.3438C19.3748 52.8668 20.6481 52.2051 21.7866 51.0718C24.0794 48.7896 26.3722 46.5112 28.6531 44.2171C29.3592 43.5078 30.1327 43.2344 30.8825 44.0229C31.5886 44.7678 31.422 45.5761 30.7 46.2775C30.3708 46.5984 30.0455 46.9312 29.7202 47.2601C27.6654 49.3126 25.563 51.3175 23.5756 53.4334C21.6993 55.4304 22.1278 58.2278 24.3888 59.468C26.2651 60.4982 28.6254 59.7255 28.788 58.0217C29.1768 53.9089 31.0491 51.9515 35.2261 51.4245C35.9719 51.3294 36.2218 51.1432 36.2575 50.3824C36.4756 45.7861 39.7046 44.4706 42.6678 43.5752C43.2827 43.3889 43.4929 43.2463 43.5921 42.6361C44.2347 38.6777 46.706 36.7323 50.6014 36.3994C50.9267 36.4668 50.9862 36.2885 50.9505 36.023C50.9624 35.492 50.9782 34.9611 50.9901 34.4341C50.9782 34.3034 50.9663 34.1766 50.9544 34.0458C51.0615 33.6496 51.5693 33.4198 51.4225 32.9205C51.6367 32.8413 51.8073 32.7343 51.7438 32.4609C55.7265 28.0191 59.3283 27.8963 63.4895 32.0567C64.2353 32.8016 65.0683 33.4832 65.7069 34.3152C66.7502 35.6664 67.3492 35.1354 68.1227 34.0339C74.6441 24.7819 71.8674 11.8331 62.0853 6.02436C54.9173 1.76884 44.7186 2.71583 39.5023 8.18381C41.4738 10.1293 43.4532 12.0708 45.4208 14.0203C47.3764 15.9579 48.3562 18.1768 47.5113 20.9741C46.6584 23.7993 44.7186 25.3208 41.8824 25.8319L39.5102 25.7646C39.3198 25.725 39.1255 25.6814 38.9351 25.6417C38.7129 25.3208 38.3638 25.305 38.0227 25.2693C37.6181 25.0117 37.2135 24.7542 36.8049 24.4966C36.2614 23.9657 35.718 23.4347 35.1745 22.8998L35.1864 22.9117C34.9167 22.6462 34.647 22.3768 34.3772 22.1113L34.3891 22.1232C34.1194 21.8498 33.8457 21.5764 33.5759 21.303C33.4569 21.1841 33.3379 21.0613 33.2189 20.9424C32.9412 20.6651 32.6636 20.3917 32.3859 20.1143C32.2669 19.9955 32.1439 19.8766 32.0249 19.7577L31.2038 18.9454L31.2157 18.9573C31.053 18.7751 30.8944 18.5928 30.7317 18.4105C30.7198 18.2917 30.6564 18.2322 30.5413 18.2322C30.224 17.7607 29.8908 17.4041 29.3513 17.9866C28.792 18.5928 28.2247 19.1951 27.6614 19.7973C26.9831 20.4749 26.3088 21.1525 25.6304 21.826C25.5154 21.941 25.4043 22.0519 25.2893 22.1668C25.0076 22.4481 24.726 22.7295 24.4444 23.0068C24.0636 23.3872 23.6788 23.7715 23.298 24.1519C23.0203 24.4332 22.7386 24.7106 22.461 24.9919C22.0762 25.3723 21.6914 25.7567 21.3066 26.137L21.2749 26.1687C20.7592 26.6838 20.2435 27.1989 19.7278 27.718C19.5771 27.8686 19.4303 28.0152 19.2796 28.1657C19.1685 28.2767 19.0535 28.3916 18.9424 28.5025C17.9983 29.4456 17.0542 30.3886 16.1101 31.3316C15.9991 31.4426 15.884 31.5575 15.773 31.6684C15.4913 31.9497 15.2097 32.2311 14.928 32.5084C14.5472 32.8888 14.1624 33.2732 13.7816 33.6535C13.5 33.9349 13.2183 34.2122 12.9407 34.4935C12.8296 34.6085 12.7146 34.7194 12.6035 34.8343C12.3218 35.1156 12.0402 35.397 11.7586 35.6783C11.2429 36.1934 10.7312 36.7045 10.2155 37.2196C10.0647 37.3702 9.91797 37.5168 9.76723 37.6674C9.6522 37.7823 9.54113 37.8972 9.42609 38.0081L9.38245 38.0517C9.04131 38.4083 8.70017 38.761 8.36299 39.1176C7.68863 39.8427 7.50219 40.7381 7.5974 41.6732C7.74814 43.1631 8.5415 44.2091 9.93384 44.8114C11.4492 45.4652 12.786 45.1125 13.9086 44.0269C16.2252 41.7882 18.4902 39.494 20.7671 37.2157C21.5407 36.443 22.3896 35.5911 23.4368 36.5856C24.611 37.6991 23.6312 38.5668 22.8259 39.3791C22.2745 39.9338 21.7588 40.5202 21.2273 41.0948L20.783 41.5306C20.4022 41.911 20.0214 42.2914 19.6406 42.6717C19.4541 42.8421 19.2717 43.0125 19.0852 43.1829C19.0059 43.2859 18.9305 43.3889 18.8512 43.4919V43.5038ZM21.8104 3.32999C14.5948 3.63905 8.62876 7.0704 5.10625 13.9926C1.63928 20.8077 2.25413 27.5793 6.45496 34.0141C7.30386 35.3137 7.84731 35.4286 9.02148 34.232C15.3564 27.7735 21.8144 21.4377 28.1692 14.999C29.4346 13.7152 30.3549 13.6756 31.5925 14.999C33.6196 17.1664 35.7656 19.2307 37.8839 21.3149C39.9466 23.3476 42.0649 23.4942 43.7547 21.7706C45.3216 20.1698 45.1431 17.9588 43.243 16.0331C40.9264 13.6835 38.586 11.3497 36.2376 9.03175C32.3938 5.23586 27.7368 3.39338 21.8104 3.32999ZM58.1621 32.0488C56.2065 32.0409 55.0006 32.7977 54.3421 34.2083C53.6876 35.6109 53.7788 37.073 54.8974 38.2498C56.7142 40.1596 58.5667 42.0417 60.4747 43.8604C62.2519 45.5523 64.3384 45.5563 65.9132 43.9952C67.4166 42.5053 67.3928 40.2349 65.7664 38.5391C64.033 36.7323 62.236 34.9849 60.4509 33.2216C59.729 32.5084 58.8841 32.025 58.1621 32.0448V32.0488ZM50.3872 39.5296C48.6735 39.4544 47.5152 40.2746 46.8885 41.7049C46.23 43.2067 46.4759 44.6965 47.6461 45.901C49.4391 47.7475 51.248 49.5781 53.1124 51.3492C54.8498 52.9936 57.0316 52.9421 58.5627 51.3334C60.0622 49.7564 60.0543 47.7277 58.4437 46.0397C56.6666 44.1814 54.8181 42.3904 52.9934 40.5757C52.2595 39.8466 51.3709 39.4742 50.3872 39.5296ZM48.4752 59.8642C50.0936 59.9038 51.1924 59.0797 51.8668 57.6453C52.6007 56.0762 52.204 54.6617 51.0695 53.477C49.2884 51.6186 47.4795 49.7841 45.6032 48.0248C43.8777 46.4122 41.6285 46.4914 40.1449 48.0843C38.6772 49.6613 38.7129 51.682 40.3314 53.366C42.1164 55.2204 43.965 57.0074 45.7817 58.83C46.5235 59.571 47.4042 59.9355 48.4792 59.8682L48.4752 59.8642ZM30.0137 62.6656C29.6488 63.6799 29.7638 64.9082 30.7476 66.0137C31.8266 67.2222 33.1277 67.6184 34.8532 67.0875C33.1554 65.5343 31.5846 64.0999 30.0137 62.6656Z" fill="#132347"/>
</svg>
