<svg width="26" height="23" viewBox="0 0 26 23" fill="none" xmlns="http://www.w3.org/2000/svg">
<g id="Group 42">
<g id="Group 41">
<g id="Group 37">
<path id="Vector" d="M13.9424 21.5649C13.7572 21.5649 13.5738 21.5598 13.3909 21.5507C16.7584 21.4364 19.8322 19.8624 21.8307 17.4C19.5821 19.9127 16.0919 21.3193 12.4229 20.8418C7.80488 20.2409 4.28869 16.8341 3.48824 12.659C3.47762 12.5719 3.46701 12.4848 3.45875 12.3971L5.0915 13.7279L2.70313 9.38245L0.51709 13.5683L1.931 12.4684C1.94338 12.5448 1.95636 12.6206 1.97052 12.6964C2.56274 18.0851 7.32768 22.2982 13.0995 22.2982C17.2292 22.2982 20.8427 20.1413 22.7821 16.9411C20.9058 19.7215 17.6444 21.5649 13.9424 21.5649Z" fill="#132347"/>
<path id="Vector_2" d="M24.3683 10.1524C24.3559 10.076 24.3423 10.0002 24.3288 9.92435C23.736 4.53582 18.9717 0.322998 13.1995 0.322998C9.07053 0.322998 5.45652 2.47977 3.51709 5.67984C5.3934 2.89958 8.65468 1.05625 12.3566 1.05625C12.5418 1.05625 12.7252 1.06135 12.9081 1.0704C9.54064 1.18469 6.46693 2.7587 4.46852 5.22099C6.71761 2.70834 10.2078 1.30237 13.876 1.77989C18.494 2.38075 22.0101 5.78734 22.8105 9.96226C22.8211 10.0494 22.8317 10.1365 22.84 10.2242L21.2073 8.89349L23.5956 13.2387L25.7821 9.05361L24.3689 10.1535L24.3683 10.1524Z" fill="#132347"/>
</g>
</g>
<circle id="Ellipse 1" cx="13.0171" cy="11.5" r="6.5" fill="#31B889"/>
</g>
</svg>
