<svg width="24" height="24" viewBox="0 0 24 24" fill="none" xmlns="http://www.w3.org/2000/svg">
<g id="Group 39">
<path id="Vector" d="M12.0191 1.72069C17.5903 1.72069 22.1223 6.24759 22.1223 11.8111C22.1223 17.3747 17.5903 21.9016 12.0191 21.9016C6.44803 21.9016 1.91597 17.3725 1.91597 11.8111C1.91597 6.24975 6.44803 1.72069 12.0191 1.72069ZM12.0191 0.555542C5.79564 0.555542 0.75 5.59453 0.75 11.8111C0.75 18.0278 5.79567 23.0645 12.017 23.0645C18.2383 23.0645 23.2839 18.0255 23.2839 11.8111C23.2839 5.59685 18.2406 0.555542 12.0191 0.555542Z" fill="#31B889" stroke="#31B889" stroke-width="0.5"/>
<path id="Vector_2" d="M13.5424 7.99881H16.0603L15.1801 9.30951H13.567C13.092 12.5934 9.1207 12.6997 9.1207 12.6997V12.8122L14.3674 19.2614H12.136L7.03677 13.0003V11.7264C8.52704 11.8614 9.5383 11.6773 10.2241 11.3584C10.2323 11.3563 10.2405 11.3522 10.2486 11.3481C11.8228 10.6529 11.6693 9.30951 11.6693 9.30951H6.57617L7.47075 8.03562H11.5383C11.1821 6.78013 9.38272 6.59405 9.13912 6.60428C8.89552 6.61246 6.57617 6.60428 6.57617 6.60428L7.47075 5.27722H16.1074L15.1821 6.61246H12.871C13.4216 7.15023 13.5465 7.99881 13.5465 7.99881H13.5424Z" fill="#132347"/>
</g>
</svg>
