<svg width="60" height="60" viewBox="0 0 60 60" fill="none" xmlns="http://www.w3.org/2000/svg">
<g id="_1" clip-path="url(#clip0_24_358)">
<path id="Vector" d="M37.1112 34.7351C38.7615 30.6394 40.2909 26.7857 41.8894 22.9666C42.0795 22.5087 42.5547 22.0507 43.0127 21.8865C43.2028 21.8174 43.8249 22.4223 43.989 22.837C45.311 26.0081 46.5553 29.2137 47.86 32.3935C48.6549 34.3289 49.5276 36.2212 50.3571 38.1481C51.8087 41.5438 53.269 44.9395 54.6947 48.3439C55.9476 51.3422 57.1572 54.3577 58.3842 57.3647C58.4015 57.4079 58.4015 57.4597 58.4274 57.5029C58.7039 57.9177 58.9804 58.3324 59.2569 58.7471C58.6693 58.8249 58.0818 58.9718 57.4942 58.9632C48.413 58.8595 39.3404 58.7212 30.2592 58.6262C26.9326 58.5916 23.606 58.6348 20.2794 58.6867C14.1705 58.7644 8.06163 58.8768 1.95275 58.9632C0.267846 58.9891 0.1728 58.8163 0.768998 57.2869C3.0501 51.4027 5.31393 45.5185 7.61232 39.6429C8.08755 38.4332 8.61462 37.2408 9.17626 36.0657C9.38363 35.6423 9.75517 35.3053 10.0576 34.9251C10.3687 35.3226 10.7748 35.6682 10.9649 36.1175C11.6647 37.7592 12.2955 39.4269 13.0731 41.3796C14.3692 38.2863 15.553 35.4954 16.7108 32.6872C18.2143 29.0236 19.7091 25.3601 21.178 21.6792C22.621 18.0674 24.0812 14.4643 25.3946 10.8007C25.6797 10.0058 25.3341 8.9862 25.3082 8.0703C25.2736 6.72238 24.0898 6.84335 23.3208 6.60141C21.0657 5.89288 18.7759 5.32261 16.4948 4.68321C16.1405 4.58816 15.7344 4.54496 15.4579 4.33759C15.1555 4.10429 14.8185 3.71547 14.7926 3.36984C14.7753 3.16247 15.311 2.79957 15.648 2.7218C18.6549 2.00464 21.6619 1.32203 24.6774 0.648069C26.4228 0.259244 26.4228 0.267885 26.4401 2.15153C26.4487 3.67226 26.561 5.20164 26.4314 6.71374C26.2327 8.943 27.0449 10.8785 27.8917 12.8399C30.1037 18.0156 32.2725 23.1999 34.4585 28.3842C35.3139 30.4061 36.1607 32.4367 37.1198 34.7437L37.1112 34.7351ZM27.8658 25.2823C27.2609 25.8526 26.6302 26.8894 26.0513 26.8635C25.3946 26.8289 24.7897 25.8439 24.159 25.265C22.8687 26.2961 21.7627 26.3739 20.841 25.4983C16.3047 36.2644 11.7684 47.0133 7.18893 57.8917C7.56047 57.9436 8.04434 58.0732 8.52821 58.0559C12.1659 57.9781 15.8122 57.8399 19.4499 57.7794C22.3272 57.7362 25.2045 57.7708 28.0127 57.7708C29.0927 54.9453 30.0432 52.4395 31.0196 49.9511C32.4453 46.3048 33.9574 42.7016 35.288 39.0208C35.7632 37.6988 37.068 36.5064 36.0916 34.8128C35.4781 33.7587 35.1757 32.5231 34.7004 31.3912C33.8105 29.2483 32.9032 27.1141 31.9614 24.8935C30.6941 26.3739 29.3318 26.5064 27.8744 25.2909L27.8658 25.2823ZM36.6619 38.2431C34.1647 44.689 31.7108 51.0225 29.1619 57.598H57.3473C54.6515 51.0311 51.9297 44.4211 49.1215 37.5951C48.6981 38.1394 48.4562 38.4764 48.197 38.7961C47.0651 40.2045 46.5294 40.2045 45.4839 38.7788C45.1642 38.3382 44.8531 37.8889 44.4384 37.3013C44.0755 38.0962 43.8076 38.7443 43.4965 39.375C43.0386 40.2996 42.4769 40.4465 41.8116 39.5478C41.3364 38.9084 40.8439 38.2863 40.3341 37.6124C39.2223 39.4614 37.9983 39.6746 36.6619 38.2518V38.2431ZM43.0472 23.269C42.693 23.9084 42.4424 24.28 42.2696 24.6861C40.7143 28.4447 39.1763 32.2034 37.621 35.962C37.1716 37.0421 37.4741 37.837 38.5714 38.4678C38.822 38.0185 39.0466 37.621 39.2713 37.2149C39.9021 36.083 40.4637 36.0225 41.25 37.0162C41.682 37.5692 42.0881 38.1308 42.572 38.7788C42.9263 38.0444 43.1941 37.4395 43.5138 36.8606C44.1273 35.7719 44.6716 35.7546 45.3888 36.7569C45.8554 37.405 46.3047 38.0617 46.8231 38.8134C47.2897 37.9321 47.6872 37.1717 48.2316 36.1348C46.7713 32.4971 44.9568 28.0041 43.0472 23.269ZM29.8963 25.5847C30.9591 24.5824 31.5553 23.6838 30.7776 22.0853C29.1532 18.7587 27.7621 15.3111 26.25 11.8549C24.7552 15.553 23.3813 19.2166 21.7828 22.7852C21.2557 23.9689 21.3854 24.6602 22.3358 25.3341C22.9925 24.7379 23.6405 24.1504 24.2886 23.5542C24.8589 24.2109 25.4291 24.8675 25.9044 25.4119C26.5697 24.8762 27.2523 23.9084 27.9003 23.9344C28.557 23.9603 29.1791 24.9626 29.8877 25.5847H29.8963ZM1.75402 57.7967C2.53167 57.7967 3.16243 57.8831 3.75863 57.7794C5.08063 57.5461 6.52361 57.6152 6.85195 55.6452C7.05068 54.4614 7.90609 53.39 8.41589 52.2495C9.59964 49.5795 10.7488 46.8923 11.8807 44.2915C11.25 44.0668 10.7229 43.9027 10.2218 43.6867C8.65782 43.0386 7.37902 43.5916 6.77418 45.1124C5.87557 47.3762 4.89054 49.6054 3.99192 51.8693C3.23156 53.7875 2.53167 55.7316 1.76266 57.788L1.75402 57.7967ZM25.239 1.52076C22.4741 2.16881 19.8733 2.77365 17.2811 3.38712C17.2984 3.49081 17.3157 3.60314 17.3329 3.70682C19.951 4.46719 22.5778 5.22756 25.239 5.99657V1.52076ZM12.2782 42.0104C11.561 40.2996 10.8612 38.6319 10.0144 36.6187C9.15898 38.7443 8.45909 40.4724 7.7592 42.2005C7.81105 42.3042 7.86289 42.4079 7.91474 42.5115C9.3145 41.5179 10.8352 43.9891 12.2782 42.0104Z" fill="#31B889" stroke="#31B889" stroke-miterlimit="10"/>
</g>
<defs>
<clipPath id="clip0_24_358">
<rect width="60" height="59.3779" fill="white"/>
</clipPath>
</defs>
</svg>
