<svg width="60" height="60" viewBox="0 0 60 60" fill="none" xmlns="http://www.w3.org/2000/svg">
<g id="_1" clip-path="url(#clip0_24_349)">
<path id="Vector" d="M0.258287 19.9656C-0.0860956 20.3013 -0.0860956 20.9815 0.258287 21.4895C3.84847 25.0452 8.81619 29.9526 12.0706 33.164L9.67714 35.5316C9.50495 35.7038 9.33276 36.0396 9.33276 36.3754C9.33276 36.7111 9.50495 36.8833 9.67714 37.0555L22.3418 49.5824C22.6862 49.9182 23.3663 49.9182 23.8829 49.5824L26.285 47.2148C29.5394 50.4348 34.6707 55.5058 38.0973 58.8894C38.4417 59.2251 39.1218 59.2251 39.6384 58.8894L44.2617 54.3177C46.8274 51.7779 48.1963 48.2221 47.6883 45.3465C47.344 43.6505 47.5161 41.7908 47.8605 39.9311L50.4262 29.6083L55.9019 24.1929C58.6397 21.4895 60.0086 17.7615 60.0086 13.1898V1.01593C60.0086 0.507964 59.5006 0 58.9841 0H46.6552C42.0319 0 38.2695 1.3517 35.5316 4.06371L29.8838 9.47912L19.4404 12.0189C17.5549 12.5269 15.678 12.5269 13.9647 12.1911C11.0547 11.6832 7.46449 12.8713 4.89023 15.5747L0.258287 19.9656ZM17.7185 24.365L35.1786 41.6272L33.4653 43.3233L16.1774 25.8975L17.7185 24.3737V24.365ZM14.6362 27.4128L32.0964 44.675L29.3586 47.3784L11.8984 30.1162L14.6362 27.4128ZM23.022 47.3784L11.8984 36.3754L13.6117 34.6793L24.7353 45.6823L23.022 47.3784ZM45.7942 39.4232C45.2777 41.6186 45.1055 43.6505 45.622 45.6823C46.1386 47.8864 44.9419 50.7619 42.8842 52.7938L38.9496 56.6853L35.0151 52.966L41.6875 46.3625C42.0319 46.0267 42.0319 45.3465 41.6875 44.8386C41.3431 44.5028 40.6629 44.5028 40.1464 44.8386L33.474 51.4421L30.7361 48.7387L37.4085 42.1352L47.3353 32.3203L45.7942 39.4318V39.4232ZM36.8919 5.41541C39.1218 3.21136 42.5398 2.03186 46.4744 2.03186H57.7701V13.1985C57.7701 17.2622 56.5734 20.4735 54.3435 22.6776C50.2368 26.7413 39.9656 36.8919 36.8833 39.9397L19.251 22.8498L36.8919 5.41541ZM13.6117 14.2144C15.6694 14.5502 17.7185 14.5501 19.9483 14.0422L26.9651 12.3461L10.3573 28.7559L7.61946 26.0525L14.2919 19.4576C14.6362 19.1218 14.6362 18.4417 14.2919 17.9337C13.9475 17.5979 13.2673 17.5979 12.7508 17.9337L6.07835 24.5372L2.48816 20.8179L6.42273 16.9264C8.48041 14.731 11.3904 13.715 13.6117 14.223V14.2144Z" fill="#31B889"/>
<path id="Vector_2" d="M46.991 24.5373C50.2454 21.3259 50.2454 15.9105 46.991 12.6905C43.7366 9.47914 38.2609 9.47914 35.0065 12.6905C31.7521 15.9019 31.7521 21.3173 35.0065 24.5373C38.2609 27.9208 43.5644 27.9208 46.991 24.5373ZM45.4499 14.2144C47.6798 16.4184 47.8519 19.802 46.1386 22.3332L37.2364 13.5342C39.6298 11.8382 43.2286 12.0104 45.4499 14.2144ZM35.6952 15.0581L44.5975 23.8571C42.2041 25.5532 38.6053 25.381 36.384 23.1769C34.1627 20.9729 33.9906 17.4258 35.7039 15.0581H35.6952Z" fill="#31B889"/>
<path id="Vector_3" d="M27.4731 27.7486L31.7521 31.9759C32.0965 32.3117 32.7766 32.3117 33.2932 31.9759C33.6376 31.6401 33.6376 30.96 33.2932 30.452L29.0142 26.2247C28.6699 25.889 27.9897 25.889 27.4731 26.2247C27.1287 26.5605 27.1287 27.2407 27.4731 27.7486Z" fill="#31B889"/>
<path id="Vector_4" d="M6.75847 38.5795L1.61857 43.6591C0.938414 44.3393 1.44638 45.5188 2.30733 45.5188C2.65172 45.5188 2.82391 45.3466 2.98749 45.183L8.11878 40.1034C8.46317 39.7676 8.46317 39.0874 8.11878 38.5795C7.7744 38.0715 7.09425 38.0715 6.74987 38.5795H6.75847Z" fill="#31B889"/>
<path id="Vector_5" d="M5.5618 48.5665C5.90618 48.5665 6.07837 48.3943 6.24196 48.2307L10.3487 44.167C10.6931 43.8312 10.6931 43.1511 10.3487 42.6431C10.0043 42.1352 9.32418 42.3073 8.8076 42.6431L4.70084 46.7068C4.01208 47.387 4.52865 48.5665 5.55319 48.5665H5.5618Z" fill="#31B889"/>
<path id="Vector_6" d="M4.36507 56.1774L14.4641 46.1903C14.8085 45.8545 14.8085 45.1743 14.4641 44.6664C14.1197 44.3306 13.4395 44.3306 12.923 44.6664L2.82396 54.6535C2.47958 54.9892 2.47958 55.6694 2.82396 56.1774C3.34053 56.6853 4.02069 56.6853 4.36507 56.1774Z" fill="#31B889"/>
<path id="Vector_7" d="M12.5784 54.4898L16.6852 50.4261C17.0296 50.0903 17.0296 49.4102 16.6852 48.9022C16.3408 48.5664 15.6607 48.5664 15.1441 48.9022L11.0373 52.9659C10.693 53.3017 10.693 53.9819 11.0373 54.4898C11.3817 54.8256 12.0619 54.8256 12.5784 54.4898Z" fill="#31B889"/>
<path id="Vector_8" d="M13.9476 59.2251L20.7922 52.458C21.1366 52.1222 21.1366 51.442 20.7922 50.9341C20.4478 50.5983 19.7677 50.5983 19.2511 50.9341L12.4065 57.7012C12.0621 58.037 12.0621 58.7171 12.4065 59.2251C12.9231 59.733 13.431 59.733 13.9476 59.2251Z" fill="#31B889"/>
</g>
<defs>
<clipPath id="clip0_24_349">
<rect width="60" height="59.604" fill="white"/>
</clipPath>
</defs>
</svg>
