<svg width="75" height="81" viewBox="0 0 75 81" fill="none" xmlns="http://www.w3.org/2000/svg">
<g id="Group 45">
<path id="Vector" d="M13.8061 50.871C13.9516 50.6424 14.0566 50.4722 14.1664 50.3047C17.1926 45.6958 21.4458 43.047 26.9211 42.3851C30.0807 42.0031 33.0881 42.5755 35.9311 43.988C36.8968 44.4676 37.8954 44.705 38.9749 44.701C43.1937 44.6869 47.4132 44.7118 51.632 44.6869C53.1969 44.6775 54.5989 45.0716 55.8239 46.055C55.875 46.096 55.939 46.1202 56.0366 46.1741C56.8373 45.4032 57.6447 44.6284 58.4508 43.8515C60.6952 41.6883 62.9268 39.511 65.1867 37.3646C66.9066 35.7314 69.382 35.3285 71.4998 36.281C74.959 37.8368 76.0149 42.219 73.6223 45.1685C69.2432 50.567 64.8507 55.9548 60.4635 61.3473C60.1524 61.73 59.8406 62.1127 59.5316 62.4968C58.4494 63.8414 57.0535 64.4999 55.3175 64.4966C48.6973 64.4858 42.0772 64.4905 35.4564 64.4932C33.3096 64.4945 31.474 65.2459 29.9595 66.7795C29.7305 67.0115 29.6551 67.214 29.7171 67.5443C30.0693 69.4101 29.6221 71.0695 28.2794 72.4289C25.9151 74.8221 23.5313 77.1959 21.1407 79.5628C20.1771 80.5173 18.9549 80.4924 17.9731 79.5265C16.8378 78.41 15.7179 77.2779 14.5913 76.1526C10.0055 71.572 5.42105 66.9893 0.8312 62.4121C0.389454 61.9715 0.0399633 61.5027 0.00427344 60.8509C-0.0300696 60.2126 0.140299 59.6543 0.598206 59.1969C3.04128 56.7552 5.45809 54.2867 7.93954 51.8847C9.4136 50.4581 11.223 50.1399 13.1893 50.6612C13.3819 50.7123 13.5671 50.7883 13.8055 50.869L13.8061 50.871ZM27.8605 64.2827C27.8376 64.2907 27.8841 64.284 27.9184 64.2605C27.9737 64.2228 28.0235 64.1764 28.0706 64.1286C30.08 62.0966 32.5447 61.2511 35.3689 61.2585C41.9661 61.276 48.5633 61.2531 55.1606 61.2767C56.0319 61.28 56.6541 60.978 57.1774 60.304C58.0575 59.1707 58.9787 58.0702 59.8837 56.957C63.6191 52.365 67.355 47.7736 71.089 43.1808C71.6163 42.5324 71.8169 41.7925 71.6223 40.9773C71.1314 38.9244 68.6789 38.4139 67.2628 39.8036C64.2224 42.788 61.1437 45.7335 58.0683 48.6823C57.805 48.9345 57.7403 49.1639 57.809 49.5069C57.9996 50.45 57.8959 51.3782 57.5942 52.2883C56.8104 54.6519 54.5552 56.1949 52.1774 56.1862C47.9364 56.1707 43.6954 56.1821 39.4543 56.1821C39.3426 56.1821 39.2294 56.1828 39.1183 56.1727C38.2961 56.0974 37.6503 55.4113 37.6449 54.6095C37.6395 53.7903 38.3197 53.0759 39.1668 53.0201C39.3681 53.0067 39.5708 53.0141 39.7722 53.0141C43.7216 53.0141 47.6711 53.0141 51.6205 53.0141C51.8226 53.0141 52.0252 53.0215 52.2266 53.01C53.5229 52.938 54.5343 52.0112 54.6912 50.7574C54.8454 49.5278 54.0535 48.3742 52.7842 48.0339C52.4441 47.9424 52.0764 47.9242 51.7209 47.9236C47.4798 47.9162 43.2388 47.9142 38.9978 47.9216C37.422 47.9242 35.9399 47.5926 34.5251 46.8817C32.1366 45.681 29.6012 45.233 26.9488 45.6218C22.4862 46.2763 19.0552 48.5189 16.6923 52.3683C16.5772 52.5553 16.4869 52.7571 16.4304 52.8647C20.2673 56.6974 24.0538 60.4796 27.8612 64.2833L27.8605 64.2827ZM3.7773 60.567C9.11192 65.8956 14.3886 71.1664 19.6822 76.4546C19.6465 76.4748 19.6923 76.4607 19.7219 76.4311C21.8027 74.3567 23.8949 72.2937 25.9562 70.2005C26.9131 69.2285 26.8545 67.97 25.8585 66.9732C21.6727 62.7854 17.4829 58.6016 13.291 54.4199C12.2291 53.3611 10.9914 53.3732 9.91595 54.4414C8.65872 55.6898 7.40823 56.9449 6.15437 58.1967C5.34563 59.0045 4.53621 59.811 3.77797 60.567H3.7773Z" fill="black"/>
<path id="Vector_2" d="M65.2892 11.4581C64.8185 20.4108 61.5411 28.0042 55.6099 34.4837C53.6159 36.6616 51.3426 38.5174 48.9803 40.2737C48.152 40.8891 47.344 41.5315 46.5164 42.1476C45.7628 42.7086 45.0915 42.7288 44.3561 42.1658C42.4147 40.6799 40.4269 39.2459 38.5683 37.6618C32.8202 32.7631 28.8108 26.7195 26.7853 19.4093C25.9785 16.4981 25.5967 13.5291 25.5388 10.5137C25.522 9.62586 25.9536 9.06623 26.763 8.69763C32.0902 6.27413 37.4087 3.82979 42.7292 1.39217C43.3002 1.13052 43.8834 0.893077 44.4389 0.601827C45.1157 0.24735 45.7453 0.297125 46.4295 0.612589C51.5203 2.96075 56.6199 5.2894 61.7169 7.62411C62.5525 8.00683 63.3848 8.39831 64.2252 8.77094C64.9424 9.0891 65.2852 9.63662 65.2885 10.4095C65.2906 10.8131 65.2885 11.216 65.2885 11.4574L65.2892 11.4581ZM45.4194 38.8645C45.5541 38.7757 45.6685 38.7085 45.7736 38.6284C46.8975 37.7715 48.0375 36.9347 49.1392 36.0495C56.1883 30.3833 60.5815 23.176 61.8057 14.1493C61.931 13.2244 61.9667 12.2875 62.0421 11.374C61.8408 11.2704 61.7249 11.2045 61.6037 11.1487C56.3647 8.7474 51.123 6.35216 45.8908 3.93606C45.482 3.74773 45.177 3.8419 44.8181 4.00669C39.703 6.35619 34.5845 8.69763 29.4674 11.0424C29.2654 11.1352 29.0674 11.2355 28.8485 11.3411C28.8485 11.5617 28.8324 11.7621 28.8512 11.9599C28.9495 13.0079 29.0048 14.0632 29.1691 15.1018C30.062 20.7351 32.3421 25.7583 35.8565 30.2454C38.5306 33.6597 41.8868 36.3058 45.4194 38.8652V38.8645Z" fill="#132347"/>
<path id="Vector_3" d="M43.1077 22.6762C43.307 22.4825 43.4814 22.3163 43.6518 22.1461C46.3177 19.4839 48.9824 16.8216 51.649 14.16C51.8234 13.9858 51.9931 13.8035 52.1877 13.6542C52.8517 13.1443 53.7567 13.2102 54.3331 13.7961C54.9042 14.3766 54.9527 15.292 54.4389 15.9445C54.3284 16.0844 54.1951 16.2068 54.0678 16.3339C50.8948 19.504 47.6995 22.6513 44.5636 25.8571C43.7387 26.6999 42.4585 26.7416 41.6161 25.8456C40.0808 24.2131 38.4599 22.66 36.8694 21.0794C36.561 20.7726 36.2835 20.4511 36.2195 20.0085C36.1206 19.3271 36.3468 18.7682 36.9205 18.376C37.4586 18.0081 38.2236 18.0249 38.7562 18.4097C38.9185 18.5267 39.0586 18.676 39.2013 18.818C40.3293 19.9419 41.4545 21.0679 42.5831 22.1912C42.7387 22.3466 42.9057 22.4905 43.1077 22.6769V22.6762Z" fill="black"/>
</g>
</svg>
