<svg width="56" height="71" viewBox="0 0 56 71" fill="none" xmlns="http://www.w3.org/2000/svg">
<g id="Group 46">
<path id="Vector" d="M21.5532 0.349854C26.0147 0.349854 30.4762 0.349854 34.9378 0.349854C41.5927 7.01594 48.2633 13.6696 54.8809 20.373C55.3942 20.892 55.8111 21.7683 55.8174 22.4831C55.8796 30.8119 55.8765 39.1406 55.8485 47.4693C55.8329 51.5373 53.5959 54.5176 49.7473 55.9006C49.2744 56.0715 48.7455 56.5625 48.5775 57.0287C47.5134 59.9375 45.6405 61.9575 42.6319 62.8868C42.243 63.008 41.7359 63.356 41.6363 63.6979C40.5723 67.4427 37.9308 69.385 34.3155 70.2707H7.54945C7.36588 70.1868 7.18854 70.0687 6.99253 70.0252C2.76746 69.1178 0.0357794 65.8733 0.0233344 61.5473C-0.00777812 48.7062 -0.00777812 35.865 0.0233344 23.0208C0.0326681 19.1143 2.27899 16.1496 5.97204 14.7977C6.49784 14.605 7.10454 14.1047 7.2881 13.6043C8.35526 10.6924 10.222 8.66925 13.2399 7.74626C13.6288 7.62816 14.136 7.27699 14.2324 6.93514C15.2965 3.18721 17.9317 1.23245 21.5532 0.349854ZM52.4759 23.0363C48.8171 23.0363 45.4009 23.0643 41.9879 23.0301C37.1125 22.9804 33.4506 19.4158 33.2795 14.5491C33.2204 12.8429 33.2608 11.1337 33.2608 9.42443C33.2608 7.57533 33.2608 5.72623 33.2608 3.7839C29.8758 3.7839 26.7179 3.7839 23.5599 3.7839C19.4624 3.78701 17.4059 5.78839 17.4028 9.84708C17.3903 22.1164 17.3934 34.3826 17.4028 46.652C17.4028 50.8412 19.422 52.8488 23.5848 52.8488C31.1545 52.8488 38.7211 52.8488 46.2907 52.8488C50.4473 52.8488 52.4697 50.8319 52.4759 46.652C52.4883 39.3022 52.4759 31.9524 52.4759 24.5995C52.4759 24.1427 52.4759 23.6827 52.4759 23.0332V23.0363ZM14.0146 11.1865C11.4447 12.2276 10.3745 13.8871 10.3714 16.6282C10.362 28.9441 10.3651 41.26 10.3682 53.576C10.3682 57.8336 12.3625 59.8163 16.6623 59.8194C24.1231 59.8256 31.587 59.8256 39.0477 59.8163C39.7727 59.8163 40.5131 59.8256 41.2163 59.6827C43.055 59.3129 44.3586 58.278 45.096 56.2859H43.4408C36.9632 56.2859 30.4794 56.1181 24.0111 56.3357C18.2241 56.5314 13.7906 52.6312 13.9431 46.248C14.2075 35.1813 14.0146 24.1023 14.0146 13.0294C14.0146 12.4762 14.0146 11.9199 14.0146 11.1865ZM38.0179 63.1975C30.7314 63.1975 23.5817 63.1975 16.4352 63.1975C10.5176 63.1944 6.93653 59.6423 6.93342 53.7593C6.9272 42.4783 6.93342 31.2003 6.93342 19.9192C6.93342 19.3785 6.93342 18.8409 6.93342 18.1105C4.7711 19.0833 3.49549 20.5066 3.48304 22.5826C3.42082 35.7252 3.40215 48.8647 3.48304 62.0073C3.4986 64.7017 5.76359 66.7901 8.45793 66.8087C16.7494 66.8678 25.0378 66.8584 33.3293 66.8056C35.6254 66.7901 37.2805 65.4506 38.0179 63.1975ZM36.7796 7.55979C36.7796 10.0584 36.6178 12.7373 36.8294 15.3882C36.9974 17.5139 38.9606 19.3878 41.07 19.5277C43.6711 19.7017 46.2907 19.5681 48.8668 19.5681C44.7973 15.5249 40.7776 11.5284 36.7796 7.55669V7.55979Z" fill="#132347"/>
<path id="Vector_2" d="M35.0093 35.3988C37.1841 35.3988 39.3557 35.4175 41.5305 35.3926C42.7345 35.3802 43.6306 35.7842 43.6181 37.1019C43.6057 38.3201 42.7408 38.7707 41.6176 38.7707C37.1685 38.7769 32.7163 38.7738 28.2672 38.7707C27.1472 38.7707 26.276 38.3294 26.2574 37.1112C26.2387 35.7966 27.1285 35.3802 28.3357 35.3926C30.5602 35.4175 32.7848 35.3988 35.0124 35.3988H35.0093Z" fill="#132347"/>
<path id="Vector_3" d="M34.8008 45.7382C32.6291 45.7382 30.4606 45.7164 28.292 45.7475C27.1315 45.763 26.3133 45.3062 26.2635 44.1283C26.2075 42.8417 27.0911 42.3196 28.2827 42.3134C32.6758 42.301 37.0658 42.3072 41.4588 42.3072C42.6442 42.3072 43.5714 42.7672 43.5683 44.0382C43.5683 45.2938 42.7002 45.7692 41.4682 45.7475C39.2467 45.7071 37.0253 45.735 34.8039 45.735L34.8008 45.7382Z" fill="#132347"/>
<path id="Vector_4" d="M31.3722 31.7503C30.2366 31.7503 29.0979 31.7658 27.9623 31.7441C26.9169 31.7223 26.304 31.1319 26.2511 30.1249C26.1951 29.0839 26.8609 28.4064 27.8347 28.3722C30.2086 28.2852 32.5918 28.2821 34.9657 28.366C36.0235 28.4033 36.6707 29.0994 36.5711 30.2368C36.4778 31.2966 35.812 31.7565 34.7821 31.7534C33.6434 31.7534 32.5078 31.7534 31.3691 31.7534L31.3722 31.7503Z" fill="#132347"/>
</g>
</svg>
