<svg xmlns="http://www.w3.org/2000/svg" width="129" height="33" viewBox="0 0 129 33" fill="none">
<g clip-path="url(#clip0_9_5)">
<path d="M5.97602 17.6922V10.4433L0 0.477905H3.76268L7.72658 7.45519L11.6452 0.477905H15.4431L9.45198 10.4534V17.6922H5.97602Z" fill="#132347"/>
<path d="M16.0618 3.62197V0.487976H19.4421V3.61694H16.0618V3.62197ZM16.097 17.6973V5.38264H19.417V17.6922H16.097V17.6973Z" fill="#132347"/>
<path d="M27.1234 17.9286C25.9011 17.9286 24.8296 17.6721 23.904 17.159C22.9784 16.6459 22.2591 15.9215 21.741 14.9858C21.2229 14.0501 20.9663 12.9485 20.9663 11.6757C20.9663 10.403 21.2027 9.33657 21.6756 8.34556C22.1484 7.35958 22.8275 6.57483 23.7179 6.00135C24.6083 5.42788 25.6848 5.13611 26.9423 5.13611C28.1999 5.13611 29.2462 5.39769 30.0963 5.92589C30.9465 6.4541 31.5904 7.18855 32.023 8.12925C32.4606 9.06995 32.6769 10.1565 32.6769 11.384V12.3247H24.402C24.402 12.9535 24.5026 13.4968 24.7139 13.9596C24.9201 14.4224 25.222 14.7796 25.6143 15.0311C26.0067 15.2826 26.4795 15.4084 27.0379 15.4084C27.6315 15.4084 28.1546 15.2826 28.5973 15.026C29.04 14.7745 29.3569 14.357 29.538 13.7785H32.6719C32.531 14.6538 32.1789 15.3983 31.6256 16.0171C31.0722 16.6358 30.3931 17.1087 29.6034 17.4357C28.8086 17.7626 27.9836 17.9236 27.1285 17.9236L27.1234 17.9286ZM24.407 10.2622H29.4323C29.4323 9.76919 29.3368 9.31644 29.1506 8.90394C28.9645 8.49144 28.6879 8.16446 28.3156 7.92803C27.9484 7.6916 27.4856 7.57086 26.9272 7.57086C26.3689 7.57086 25.9413 7.70166 25.564 7.95821C25.1867 8.21477 24.895 8.55181 24.6938 8.96431C24.4926 9.37681 24.392 9.80943 24.402 10.2622H24.407Z" fill="#132347"/>
<path d="M38.17 17.9085C37.2645 17.9085 36.5452 17.8029 36.017 17.5866C35.4838 17.3703 35.0914 17.0886 34.8399 16.7364C34.5834 16.3843 34.4224 15.9919 34.352 15.5593C34.2815 15.1267 34.2463 14.689 34.2463 14.2413V0H37.6519V13.8137C37.6519 14.2665 37.7474 14.6337 37.9436 14.9154C38.1398 15.1971 38.507 15.3681 39.0453 15.4335L39.6288 15.4688V17.6117C39.3924 17.6922 39.1459 17.7627 38.9044 17.818C38.6579 17.8784 38.4165 17.9085 38.1801 17.9085H38.17Z" fill="#132347"/>
<path d="M45.0517 17.9287C43.4017 17.9287 42.1139 17.3602 41.1934 16.2183C40.2728 15.0814 39.8101 13.4918 39.8101 11.4595C39.8101 10.1716 39.9962 9.05991 40.3684 8.11418C40.7407 7.16844 41.294 6.43902 42.0234 5.91585C42.7528 5.39771 43.6482 5.13613 44.7046 5.13613C45.1472 5.13613 45.5647 5.18643 45.9471 5.28704C46.3344 5.38765 46.6815 5.52348 46.9984 5.69954C47.3153 5.87561 47.592 6.07683 47.8334 6.30823C48.0698 6.53963 48.266 6.78613 48.4169 7.04771V0H51.903V17.6922H49.3777L48.9854 15.1669C48.8646 15.509 48.7087 15.841 48.5175 16.168C48.3214 16.495 48.0698 16.7867 47.763 17.0534C47.4511 17.32 47.0738 17.5312 46.6261 17.6922C46.1785 17.8532 45.6503 17.9287 45.0466 17.9287H45.0517ZM45.8112 15.4285C46.6865 15.4285 47.3354 15.1216 47.768 14.513C48.2006 13.9043 48.4169 12.868 48.4169 11.4192C48.4069 10.5791 48.3113 9.87988 48.1202 9.32149C47.929 8.76814 47.6473 8.35061 47.27 8.07896C46.8928 7.80732 46.4149 7.66646 45.8364 7.66646C45.0818 7.66646 44.453 7.9532 43.955 8.53171C43.457 9.10518 43.2055 10.071 43.2055 11.4192C43.2055 12.7674 43.4369 13.8037 43.9098 14.4576C44.3826 15.1116 45.0114 15.4335 45.8163 15.4335L45.8112 15.4285Z" fill="#132347"/>
<path d="M57.9695 17.6922L52.8989 0.477905H56.3045L59.5088 11.8468L62.7081 0.477905H65.2182L68.4577 11.8468L71.662 0.477905H75.0575L69.9718 17.6922H67.1951L63.9556 6.43903L60.6909 17.6922H57.9645H57.9695Z" fill="#132347"/>
<path d="M76.0435 3.62197V0.487976H79.4238V3.61694H76.0435V3.62197ZM76.0787 17.6973V5.38264H79.3987V17.6922H76.0787V17.6973Z" fill="#132347"/>
<path d="M86.4007 17.9287C85.5456 17.9287 84.7206 17.7878 83.9309 17.5061C83.1411 17.2244 82.4721 16.7817 81.9187 16.173C81.3654 15.5643 81.0183 14.7796 80.8774 13.8087H83.8755C83.9862 14.2464 84.1773 14.5884 84.454 14.845C84.7307 15.1015 85.0375 15.2776 85.3896 15.3883C85.7418 15.4989 86.0738 15.5493 86.3907 15.5493C87.0597 15.5493 87.5929 15.4436 88.0054 15.2323C88.4129 15.0211 88.6191 14.6991 88.6191 14.2614C88.6191 13.9294 88.4984 13.6628 88.2569 13.4616C88.0155 13.2654 87.6181 13.1145 87.0597 13.0089L84.8916 12.5561C83.8051 12.3247 82.9298 11.9374 82.2658 11.384C81.6018 10.8307 81.2698 10.0509 81.2597 9.03477C81.2497 8.29529 81.4459 7.6363 81.8382 7.04773C82.2306 6.45916 82.8141 5.99636 83.5888 5.65428C84.3635 5.31221 85.3092 5.14117 86.4309 5.14117C87.945 5.14117 89.1574 5.47319 90.0678 6.14224C90.9783 6.8113 91.4411 7.752 91.4562 8.96434H88.5537C88.4682 8.48645 88.2318 8.11922 87.8444 7.86267C87.4571 7.60611 86.9742 7.47532 86.3856 7.47532C85.7971 7.47532 85.2991 7.58096 84.9067 7.79727C84.5194 8.01358 84.3232 8.33553 84.3232 8.77319C84.3232 9.10017 84.4842 9.35672 84.8011 9.54285C85.118 9.72898 85.611 9.88995 86.275 10.0258L88.2771 10.4785C88.9662 10.6445 89.5296 10.8759 89.9622 11.1627C90.3948 11.4544 90.7318 11.7663 90.9683 12.1084C91.2047 12.4505 91.3707 12.7925 91.4612 13.1397C91.5518 13.4868 91.5971 13.7986 91.5971 14.0753C91.5971 14.8953 91.3808 15.5895 90.9431 16.163C90.5055 16.7364 89.8968 17.1791 89.1221 17.481C88.3475 17.7828 87.437 17.9337 86.4058 17.9337L86.4007 17.9287Z" fill="#132347"/>
<path d="M98.7001 17.9286C97.4777 17.9286 96.4063 17.6721 95.4807 17.159C94.5551 16.6459 93.8358 15.9215 93.3176 14.9858C92.7995 14.0501 92.543 12.9485 92.543 11.6757C92.543 10.403 92.7794 9.33657 93.2522 8.34556C93.7251 7.35958 94.4042 6.57483 95.2946 6.00135C96.1849 5.42788 97.2614 5.13611 98.519 5.13611C99.7766 5.13611 100.823 5.39769 101.673 5.92589C102.523 6.4541 103.167 7.18855 103.6 8.12925C104.037 9.06995 104.254 10.1565 104.254 11.384V12.3247H95.9787C95.9787 12.9535 96.0793 13.4968 96.2906 13.9596C96.4968 14.4224 96.7986 14.7796 97.191 15.0311C97.5834 15.2826 98.0562 15.4084 98.6146 15.4084C99.2081 15.4084 99.7313 15.2826 100.174 15.026C100.617 14.7745 100.934 14.357 101.115 13.7785H104.249C104.108 14.6538 103.756 15.3983 103.202 16.0171C102.649 16.6358 101.97 17.1087 101.18 17.4357C100.385 17.7626 99.5603 17.9236 98.7051 17.9236L98.7001 17.9286ZM95.9837 10.2622H101.009C101.009 9.76919 100.913 9.31644 100.727 8.90394C100.541 8.49144 100.265 8.16446 99.8923 7.92803C99.5251 7.6916 99.0623 7.57086 98.5039 7.57086C97.9455 7.57086 97.518 7.70166 97.1407 7.95821C96.7634 8.21477 96.4717 8.55181 96.2704 8.96431C96.0692 9.37681 95.9686 9.80943 95.9787 10.2622H95.9837Z" fill="#132347"/>
<path d="M112.201 17.7325H104.585L112.875 9.13033L104.585 0.528198H108.112C110.727 0.528198 113.228 1.58963 115.043 3.47606L120.496 9.13033L112.206 17.7325H112.201Z" fill="#31B889"/>
<path d="M121.955 7.63628L128.807 0.528198H121.191L118.017 3.81814L121.955 7.63628Z" fill="#132347"/>
<path d="M117.986 14.4023L118.374 14.8047C120.175 16.676 122.665 17.7324 125.26 17.7324H128.812L121.819 10.4734L117.991 14.4023H117.986Z" fill="#132347"/>
<path d="M73.191 32.4819L72.1296 30.6759L71.9385 30.3489L70.8922 28.5732L70.7061 28.2512L70.5149 28.5732L69.4686 30.3489L69.2775 30.6759L68.2161 32.4819L68.0249 32.8088H73.3822L73.191 32.4819ZM70.701 28.8951L71.5562 30.354H69.8408L70.696 28.8951H70.701ZM68.5933 32.4819L69.6547 30.6759H71.7524L72.8138 32.4819H68.5933Z" fill="#AE832D"/>
<path d="M68.8399 27.7834L69.4436 26.7522L69.6297 26.4302L69.4436 26.1083L69.0512 25.4392L68.8651 25.1172L68.4576 24.423L68.2715 24.1011L68.0803 24.423L66.1084 27.7733L65.9173 28.1003L64.5792 30.3741H62.4011L66.9888 22.5718L67.1799 22.2499L66.9888 21.9279L66.8026 22.2499L62.0238 30.3691L61.8327 30.6961L60.7864 32.4718L60.5952 32.7988H65.8771L66.0682 32.4718L68.6437 28.0953L68.8349 27.7683L68.8399 27.7834ZM69.2574 26.4352L68.4626 27.7834H67.6779L68.8651 25.7662L69.2574 26.4352ZM68.2665 24.7551L68.6739 25.4493L67.3006 27.7884H66.4857L68.2715 24.7551H68.2665ZM65.696 32.4869H61.1636L62.2099 30.7111H64.7654L64.9565 30.3842L66.2946 28.1104H68.2715L65.696 32.4869Z" fill="#AE832D"/>
<path d="M81.2095 21.9481L76.5464 32.8089H77.2456L81.4761 22.8686L85.5658 32.8089H86.275L81.7477 21.9531L81.2095 21.9481Z" fill="#132347"/>
<path d="M128.102 32.8089H128.806L124.289 21.9581H123.761L122.161 25.6857L120.607 21.9581H120.059L115.406 32.8089H116.1L120.33 22.8686L121.814 26.4856L119.103 32.8089H119.797L122.146 27.2904L124.42 32.8089H125.124L122.488 26.4856L124.017 22.8938L128.102 32.8089Z" fill="#132347"/>
<path d="M94.0621 28.4173C94.0621 28.9052 94.0067 29.3881 93.9061 29.8711C93.8055 30.349 93.6345 30.7765 93.3931 31.1538C93.1516 31.5311 92.8246 31.833 92.4172 32.0593C92.0097 32.2907 91.4966 32.4014 90.8779 32.3964C90.2692 32.3964 89.7662 32.2756 89.3638 32.0493C88.9613 31.8179 88.6444 31.516 88.403 31.1438C88.1665 30.7715 88.0005 30.3439 87.905 29.861C87.8094 29.3831 87.7641 28.8851 87.7641 28.382V21.9631H87.1102V28.377C87.1051 28.9605 87.1605 29.524 87.2862 30.0773C87.407 30.6256 87.6132 31.1186 87.91 31.5512C88.2018 31.9839 88.5941 32.336 89.0821 32.5976C89.57 32.8642 90.1736 32.995 90.893 33C91.5972 33 92.1908 32.8843 92.6737 32.6378C93.1617 32.3913 93.554 32.0593 93.8558 31.6368C94.1577 31.2142 94.379 30.7262 94.5148 30.1679C94.6506 29.6095 94.7211 29.031 94.7261 28.4223L94.7512 21.9631H94.1124L94.0721 28.4173H94.0621Z" fill="#132347"/>
<path d="M114.163 28.4173C114.163 28.9052 114.108 29.3882 114.007 29.8711C113.907 30.349 113.736 30.7766 113.494 31.1539C113.253 31.5312 112.926 31.833 112.518 32.0594C112.111 32.2857 111.537 32.4014 110.919 32.3964C110.31 32.3964 109.807 32.2757 109.404 32.0493C109.002 31.8179 108.685 31.5161 108.444 31.1438C108.207 30.7716 108.041 30.344 107.946 29.861C107.85 29.3831 107.805 28.8851 107.805 28.3821L107.84 21.9682H107.186L107.151 28.377C107.151 28.9606 107.206 29.524 107.327 30.0773C107.448 30.6257 107.654 31.1187 107.951 31.5513C108.242 31.9839 108.635 32.336 109.123 32.5976C109.611 32.8642 110.214 32.995 110.934 33.0001C111.638 33.0001 112.292 32.8844 112.78 32.6379C113.268 32.3914 113.66 32.0594 113.962 31.6368C114.264 31.2142 114.485 30.7263 114.621 30.1679C114.757 29.6095 114.827 29.031 114.832 28.4223L114.867 21.9682H114.213L114.178 28.4223L114.163 28.4173Z" fill="#132347"/>
<path d="M103.75 28.7794C103.484 28.4726 103.157 28.216 102.785 28.0198C104.052 27.5319 104.671 25.9976 104.681 24.9563C104.681 24.0055 104.208 21.9782 101.467 21.9631H96.8086L96.8237 32.8089H97.4223L97.3971 28.216L101.421 28.2412C101.784 28.2412 102.126 28.3267 102.438 28.4877C102.754 28.6487 103.031 28.87 103.268 29.1316C103.509 29.3982 103.695 29.7101 103.831 30.0572C103.972 30.4043 104.037 30.7715 104.037 31.1438L104.027 32.8089H104.641L104.651 31.1488C104.651 30.7313 104.575 30.3037 104.419 29.8912C104.264 29.4787 104.042 29.1064 103.755 28.7794M101.532 27.6778H101.436L97.3971 27.6526L97.4223 22.5165L101.447 22.5416C103.323 22.5517 104.077 23.6584 104.072 24.9563C104.062 26.7371 102.709 27.6878 101.527 27.6778H101.532Z" fill="#132347"/>
<path d="M57.6425 26.9433H5.97607V27.396H57.6425V26.9433Z" fill="#122447"/>
</g>
<defs>
<clipPath id="clip0_9_5">
<rect width="128.806" height="33" fill="white"/>
</clipPath>
</defs>
</svg>

