<svg width="22" height="26" viewBox="0 0 22 26" fill="none" xmlns="http://www.w3.org/2000/svg">
<g id="Group 40">
<g id="Group 38">
<path id="Vector" d="M8.65478 17.5082L5.7277 13.4135L7.30206 12.3013L9.03623 14.5147L15.7321 8.45198L17.0091 9.75875L8.65478 17.5082Z" fill="#132347"/>
<path id="Vector_2" d="M11.2584 25.2939L11.0965 25.265C10.9857 25.2458 8.36132 24.7579 5.74369 22.4887C3.36017 20.4216 0.51709 16.4173 0.51709 9.08139V4.4968H1.43716C7.19943 4.4968 10.556 1.042 10.5897 1.00736L11.24 0.324097L11.9096 0.989073C11.9433 1.02276 15.5196 4.49776 21.0805 4.49776H22.0006V9.08235C22.0006 12.2985 21.4572 15.148 20.3868 17.5519C19.5169 19.5045 18.301 21.1655 16.773 22.4906C14.1563 24.7589 11.531 25.2468 11.4202 25.267L11.2584 25.2958V25.2939ZM2.3582 6.30985V9.08139C2.3582 14.3704 3.87945 18.393 6.87957 21.0375C8.77078 22.7052 10.6957 23.2778 11.2593 23.4183C11.8191 23.2797 13.745 22.7062 15.6381 21.0375C18.6382 18.393 20.1595 14.3704 20.1595 9.08139V6.30889C15.7181 6.04424 12.5763 3.92613 11.2728 2.87333C10.002 3.93961 6.93545 6.05387 2.3582 6.31081V6.30985Z" fill="#31B889"/>
</g>
</g>
</svg>
